<?xml version="1.0" encoding="UTF-8"?>
<svg version="1.1" xmlns="http://www.w3.org/2000/svg" width="23" height="21">
<path d="M0 0 C1.15822266 -0.01740234 1.15822266 -0.01740234 2.33984375 -0.03515625 C8.01038253 -0.00567338 8.01038253 -0.00567338 10.20507812 1.70068359 C11.5 3.375 11.5 3.375 12.125 6.5625 C11.23904849 11.96680423 8.30809883 14.62398188 4.5 18.375 C4.01144531 18.96796875 3.52289063 19.5609375 3.01953125 20.171875 C1.5 21.375 1.5 21.375 -0.42578125 21.30859375 C-3.08685371 20.11086057 -4.66556296 18.53530709 -6.6875 16.4375 C-7.38230469 15.72722656 -8.07710937 15.01695313 -8.79296875 14.28515625 C-11.1960842 11.59608656 -11.48134516 10.631504 -11.75 6.9375 C-11.5 3.375 -11.5 3.375 -10.22851562 1.67724609 C-7.22897193 -0.58257962 -3.60383107 -0.05414771 0 0 Z M-6.5 3.375 C-8.74444134 5.16169232 -8.74444134 5.16169232 -8.5625 7.5625 C-6.95844414 11.80853021 -3.81729746 14.36951118 -0.5 17.375 C0.62588014 16.41770084 1.7506715 15.45912105 2.875 14.5 C3.81472656 13.69949219 3.81472656 13.69949219 4.7734375 12.8828125 C6.05836651 11.76067993 7.29371975 10.58128025 8.5 9.375 C8.17958603 6.77219432 8.17958603 6.77219432 7.5 4.375 C5.14632287 3.6871764 5.14632287 3.6871764 2.5 3.375 C1.51 4.035 0.52 4.695 -0.5 5.375 C-1.16 4.715 -1.82 4.055 -2.5 3.375 C-3.82 3.375 -5.14 3.375 -6.5 3.375 Z " fill="#000000" transform="translate(11.5,-0.375)"/>
</svg>
