<?xml version="1.0" encoding="UTF-8"?>
<svg version="1.1" xmlns="http://www.w3.org/2000/svg" width="23" height="21">
<path d="M0 0 C1.15822266 -0.01740234 1.15822266 -0.01740234 2.33984375 -0.03515625 C8.01038253 -0.00567338 8.01038253 -0.00567338 10.20507812 1.70068359 C11.5 3.375 11.5 3.375 12.125 6.5625 C11.23904849 11.96680423 8.30809883 14.62398188 4.5 18.375 C4.01144531 18.96796875 3.52289063 19.5609375 3.01953125 20.171875 C1.5 21.375 1.5 21.375 -0.42578125 21.30859375 C-3.08685371 20.11086057 -4.66556296 18.53530709 -6.6875 16.4375 C-7.38230469 15.72722656 -8.07710937 15.01695313 -8.79296875 14.28515625 C-11.1960842 11.59608656 -11.48134516 10.631504 -11.75 6.9375 C-11.5 3.375 -11.5 3.375 -10.22851562 1.67724609 C-7.22897193 -0.58257962 -3.60383107 -0.05414771 0 0 Z " fill="#FFFFFF" transform="translate(11.5,-0.375)"/>
</svg>
