<?xml version="1.0" encoding="UTF-8"?>
<svg version="1.1" xmlns="http://www.w3.org/2000/svg" width="19" height="24">
<path d="M0 0 C2.453125 0.41796875 2.453125 0.41796875 5.578125 2.60546875 C7.58037126 5.60883814 8.0397966 6.89793918 7.453125 10.41796875 C5.5675997 12.30349405 2.87543669 11.55043564 0.37109375 11.5546875 C-0.42683594 11.55082031 -1.22476562 11.54695313 -2.046875 11.54296875 C-2.84480469 11.54683594 -3.64273437 11.55070312 -4.46484375 11.5546875 C-10.42026733 11.54457642 -10.42026733 11.54457642 -11.546875 10.41796875 C-11.08250599 4.14898715 -11.08250599 4.14898715 -9.3046875 1.72265625 C-6.36363919 -0.46025517 -3.54726937 -0.10890739 0 0 Z " fill="#FFFFFF" transform="translate(11.546875,12.58203125)"/>
<path d="M0 0 C2.99773701 1.15297577 4.00312605 2.0687521 5.4375 4.9375 C5.19675978 8.30786311 4.84951979 9.52548021 2.4375 11.9375 C-1.21752698 12.41424265 -2.93676275 12.37070271 -6 10.25 C-7.5625 7.9375 -7.5625 7.9375 -7.5625 5.375 C-5.98918603 1.54004719 -4.23072518 -0.10318842 0 0 Z " fill="#FFFFFF" transform="translate(10.5625,0.0625)"/>
</svg>
