<?xml version="1.0" encoding="UTF-8"?>
<svg version="1.1" xmlns="http://www.w3.org/2000/svg" width="24" height="24">
<path d="M0 0 C9.67897592 4.70629104 9.67897592 4.70629104 13 9 C13.82992724 13.75894989 13.67843383 18.22536188 13 23 C12 24 12 24 9.93359375 24.09765625 C9.10988281 24.08605469 8.28617188 24.07445313 7.4375 24.0625 C6.61121094 24.05347656 5.78492187 24.04445313 4.93359375 24.03515625 C3.97646484 24.01775391 3.97646484 24.01775391 3 24 C2.67 21.69 2.34 19.38 2 17 C1.34 17 0.68 17 0 17 C-0.33 19.31 -0.66 21.62 -1 24 C-2.47906892 24.02689216 -3.95827483 24.04634621 -5.4375 24.0625 C-6.67306641 24.07990234 -6.67306641 24.07990234 -7.93359375 24.09765625 C-10 24 -10 24 -11 23 C-11.82234612 18.17203244 -11.99997478 13.80600122 -11 9 C-7.81587141 5.19729866 -4.21166464 2.58443057 0 0 Z " fill="#FFFFFF" transform="translate(11,0)"/>
</svg>
