<?xml version="1.0" encoding="UTF-8"?>
<svg version="1.1" xmlns="http://www.w3.org/2000/svg" width="26" height="26">
<path d="M0 0 C5.2589839 2.09693662 9.19371764 5.38565784 12.46875 9.984375 C13.41006236 14.77838112 13.36149116 19.18270289 12.46875 23.984375 C10.46875 25.984375 10.46875 25.984375 8.0859375 26.1796875 C7.18101563 26.15648438 6.27609375 26.13328125 5.34375 26.109375 C4.43367188 26.09132813 3.52359375 26.07328125 2.5859375 26.0546875 C1.88726562 26.03148438 1.18859375 26.00828125 0.46875 25.984375 C0.46875 23.674375 0.46875 21.364375 0.46875 18.984375 C-0.19125 18.984375 -0.85125 18.984375 -1.53125 18.984375 C-1.53125 21.294375 -1.53125 23.604375 -1.53125 25.984375 C-3.15588842 26.03832978 -4.78103541 26.07714695 -6.40625 26.109375 C-7.31117188 26.13257812 -8.21609375 26.15578125 -9.1484375 26.1796875 C-11.53125 25.984375 -11.53125 25.984375 -13.53125 23.984375 C-14.49828262 19.15570206 -14.54506409 14.80506098 -13.53125 9.984375 C-10.32557551 5.51070255 -5.9100664 -0.03648189 0 0 Z M-8.59765625 9.47265625 C-11.48724352 13.22620092 -11.23971957 16.27907972 -10.84765625 20.859375 C-10.74324219 21.560625 -10.63882812 22.261875 -10.53125 22.984375 C-8.55125 22.984375 -6.57125 22.984375 -4.53125 22.984375 C-3.54125 19.519375 -3.54125 19.519375 -2.53125 15.984375 C-0.88125 16.314375 0.76875 16.644375 2.46875 16.984375 C2.79875 18.964375 3.12875 20.944375 3.46875 22.984375 C5.44875 22.984375 7.42875 22.984375 9.46875 22.984375 C10.03590055 19.17536391 10.2192127 15.77644811 9.46875 11.984375 C6.91713728 8.66985585 4.00374248 6.21129265 0.46875 3.984375 C-3.32098453 3.984375 -5.8898797 7.05948579 -8.59765625 9.47265625 Z " fill="#101B1C" transform="translate(13.53125,0.015625)"/>
</svg>
