<?xml version="1.0" encoding="UTF-8"?>
<svg version="1.1" xmlns="http://www.w3.org/2000/svg" width="50" height="50">
<path d="M0 0 C6.21022081 3.77380156 11.12756342 9.38269026 13.4375 16.3125 C14.06027571 24.34732765 14.41847862 31.64415403 9.4375 38.3125 C4.85388456 43.61984419 -0.46283458 47.99473686 -7.63671875 48.55078125 C-16.8461929 48.73994883 -22.33912774 47.95995786 -29.3125 41.9375 C-35.62744532 34.57006379 -36.92244811 29.37808317 -36.84375 19.8359375 C-36.26602578 12.59833686 -33.0249729 7.99461963 -27.5625 3.3125 C-19.66584559 -2.37309117 -9.18150824 -4.36209587 0 0 Z " fill="#CB8B8F" transform="translate(36.5625,1.6875)"/>
<path d="M0 0 C1.98 0.66 3.96 1.32 6 2 C6 2.99 6 3.98 6 5 C9.465 4.505 9.465 4.505 13 4 C13.433125 4.969375 13.86625 5.93875 14.3125 6.9375 C15.7014861 10.27731765 15.7014861 10.27731765 19 11 C16.84615385 19 16.84615385 19 15 22 C14.34 22.33 13.68 22.66 13 23 C12.957279 21.33388095 12.95936168 19.66617115 13 18 C13.33 17.67 13.66 17.34 14 17 C13.71325582 14.99279077 13.38133299 12.9914056 13 11 C8.45194365 10.82164485 5.1205746 11.00214565 1 13 C1 13.66 1 14.32 1 15 C0.34 15.66 -0.32 16.32 -1 17 C-0.505 17.45375 -0.01 17.9075 0.5 18.375 C2 20 2 20 2 22 C1.67 22.33 1.34 22.66 1 23 C1.66 23.33 2.32 23.66 3 24 C2.34 24.4125 1.68 24.825 1 25.25 C0.34 25.8275 -0.32 26.405 -1 27 C-1 28.32 -1 29.64 -1 31 C2.3 31.33 5.6 31.66 9 32 C9 31.34 9 30.68 9 30 C10.32 30 11.64 30 13 30 C13.33 33.3 13.66 36.6 14 40 C14.99 39.505 14.99 39.505 16 39 C15.34 40.32 14.68 41.64 14 43 C13.34 43 12.68 43 12 43 C12 43.66 12 44.32 12 45 C9.9377952 45.054348 7.87517184 45.09294961 5.8125 45.125 C4.66394531 45.14820313 3.51539063 45.17140625 2.33203125 45.1953125 C-0.91740372 45.00484152 -3.08660521 44.39360127 -6 43 C-5.45768102 40.01724561 -4.76188274 37.21950454 -3.875 34.3125 C-2.64945363 31.15041626 -2.64945363 31.15041626 -4 29 C-3.71758117 26.6599583 -3.38749213 24.32495277 -3 22 C-3.66 22 -4.32 22 -5 22 C-4.67 23.65 -4.34 25.3 -4 27 C-6.0625 25.375 -6.0625 25.375 -8 23 C-7.6875 20.0625 -7.6875 20.0625 -7 17 C-7.36858988 14.23135047 -7.36858988 14.23135047 -8 12 C-7.34 12 -6.68 12 -6 12 C-6 11.34 -6 10.68 -6 10 C-6.66 9.67 -7.32 9.34 -8 9 C-8 7.68 -8 6.36 -8 5 C-6.20963542 3.99088542 -4.41927083 2.98177083 -2.62890625 1.97265625 C-1.02121854 1.1027487 -1.02121854 1.1027487 0 0 Z " fill="#45292B" transform="translate(19,5)"/>
<path d="M0 0 C0.66 2.31 1.32 4.62 2 7 C1.34 7 0.68 7 0 7 C0.66 7.66 1.32 8.32 2 9 C2.66 8.34 3.32 7.68 4 7 C4.94721072 9.60482949 5.30222393 11.30674701 4.17578125 13.890625 C3.17063275 15.62582873 2.0893855 17.31640423 1 19 C-0.65 19 -2.3 19 -4 19 C-4 19.66 -4 20.32 -4 21 C-6.92276836 21.83507667 -8.76017496 22.05450569 -11.75 21.375 C-14 20 -14 20 -14.8125 17.375 C-14.874375 16.59125 -14.93625 15.8075 -15 15 C-14.01 14.34 -13.02 13.68 -12 13 C-12.99 12.67 -13.98 12.34 -15 12 C-13.68 11.67 -12.36 11.34 -11 11 C-11 10.34 -11 9.68 -11 9 C-11.99 8.67 -12.98 8.34 -14 8 C-14.33 7.01 -14.66 6.02 -15 5 C-14.01 4.67 -13.02 4.34 -12 4 C-12 3.34 -12 2.68 -12 2 C-7.86180432 -1.38579646 -5.08886459 -1.09759825 0 0 Z " fill="#B67564" transform="translate(32,16)"/>
<path d="M0 0 C1.98 0.66 3.96 1.32 6 2 C6 2.99 6 3.98 6 5 C9.465 4.505 9.465 4.505 13 4 C13.433125 4.969375 13.86625 5.93875 14.3125 6.9375 C15.7014861 10.27731765 15.7014861 10.27731765 19 11 C16.84615385 19 16.84615385 19 15 22 C14.34 22.33 13.68 22.66 13 23 C12.957279 21.33388095 12.95936168 19.66617115 13 18 C13.33 17.67 13.66 17.34 14 17 C13.71325582 14.99279077 13.38133299 12.9914056 13 11 C8.45194365 10.82164485 5.1205746 11.00214565 1 13 C1 13.66 1 14.32 1 15 C-0.98 15.66 -2.96 16.32 -5 17 C-5 16.34 -5 15.68 -5 15 C-5.99 14.67 -6.98 14.34 -8 14 C-8 13.34 -8 12.68 -8 12 C-7.34 12 -6.68 12 -6 12 C-6 11.34 -6 10.68 -6 10 C-6.66 9.67 -7.32 9.34 -8 9 C-8 7.68 -8 6.36 -8 5 C-6.20963542 3.99088542 -4.41927083 2.98177083 -2.62890625 1.97265625 C-1.02121854 1.1027487 -1.02121854 1.1027487 0 0 Z " fill="#673B36" transform="translate(19,5)"/>
<path d="M0 0 C0.66 0 1.32 0 2 0 C2.66 2.31 3.32 4.62 4 7 C3.34 7 2.68 7 2 7 C2 8.32 2 9.64 2 11 C2.66 11.33 3.32 11.66 4 12 C3.79375 12.94875 3.5875 13.8975 3.375 14.875 C3.25125 15.90625 3.1275 16.9375 3 18 C3.66 18.66 4.32 19.32 5 20 C5 19.01 5 18.02 5 17 C5.66 17 6.32 17 7 17 C6.95117188 20.02734375 6.95117188 20.02734375 6.90234375 23.0546875 C6.87350758 25.08185404 6.87350758 25.08185404 8 27 C7.00246808 30.52972833 5.73815004 33.77200707 4 37 C2.68 36.34 1.36 35.68 0 35 C1.32 33.35 2.64 31.7 4 30 C2.824375 29.566875 2.824375 29.566875 1.625 29.125 C-1 28 -1 28 -3 26 C-5.32472376 19.51759721 -5.26131837 10.00668448 -2.5625 3.6875 C-1 1 -1 1 0 0 Z " fill="#D79698" transform="translate(9,10)"/>
<path d="M0 0 C0.90105469 0.00902344 1.80210938 0.01804688 2.73046875 0.02734375 C3.41753906 0.03894531 4.10460937 0.05054688 4.8125 0.0625 C4.4825 1.0525 4.1525 2.0425 3.8125 3.0625 C2.4925 3.0625 1.1725 3.0625 -0.1875 3.0625 C-0.1875 3.7225 -0.1875 4.3825 -0.1875 5.0625 C2.7825 6.0525 5.7525 7.0425 8.8125 8.0625 C7.8225 9.0525 6.8325 10.0425 5.8125 11.0625 C3.125 10.75 3.125 10.75 0.8125 10.0625 C0.8125 9.0725 0.8125 8.0825 0.8125 7.0625 C-1.48044488 6.20275199 -1.48044488 6.20275199 -4.1875 6.0625 C-5.54323748 7.37304623 -6.87362831 8.70998503 -8.1875 10.0625 C-10.50220912 10.79120472 -12.8380947 11.45489518 -15.1875 12.0625 C-17.20906704 13.01814988 -19.21716574 14.00524747 -21.1875 15.0625 C-19.04708172 8.2520782 -14.11229547 4.66889724 -8.1875 1.0625 C-5.17259443 0.05753148 -3.14568308 -0.04085303 0 0 Z " fill="#C28288" transform="translate(23.1875,-0.0625)"/>
<path d="M0 0 C2 3 2 3 1.9375 5.8125 C0.73100001 9.91459996 -1.10649811 11.88392104 -4 15 C-1.03 15.495 -1.03 15.495 2 16 C-1.93963055 20.55519783 -5.26928904 22.15451681 -11 24 C-11 22 -11 22 -9 20 C-9.33 20 -9.66 20 -10 20 C-10.86073195 9.25041426 -10.86073195 9.25041426 -7.625 5.3125 C-5 3 -5 3 -3 3 C-3 3.99 -3 4.98 -3 6 C-2.34 6 -1.68 6 -1 6 C-1.020625 5.195625 -1.04125 4.39125 -1.0625 3.5625 C-1 1 -1 1 0 0 Z " fill="#D6989C" transform="translate(42,26)"/>
<path d="M0 0 C0.33 0 0.66 0 1 0 C1.33 2.97 1.66 5.94 2 9 C2.66 8.67 3.32 8.34 4 8 C3.34 9.32 2.68 10.64 2 12 C1.34 12 0.68 12 0 12 C0 12.66 0 13.32 0 14 C-2.0622048 14.054348 -4.12482816 14.09294961 -6.1875 14.125 C-7.33605469 14.14820313 -8.48460937 14.17140625 -9.66796875 14.1953125 C-12.91740372 14.00484152 -15.08660521 13.39360127 -18 12 C-17.32829194 8.1936543 -16.27253436 4.64793184 -15 1 C-14.67 1 -14.34 1 -14 1 C-13.34 3.97 -12.68 6.94 -12 10 C-9.64828869 9.40138258 -7.3140622 8.73075648 -5 8 C-4.67 7.34 -4.34 6.68 -4 6 C-3.01 6 -2.02 6 -1 6 C-0.67 4.02 -0.34 2.04 0 0 Z " fill="#73858E" transform="translate(31,36)"/>
<path d="M0 0 C0.66 2.31 1.32 4.62 2 7 C-0.97 6.505 -0.97 6.505 -4 6 C-3.67 5.34 -3.34 4.68 -3 4 C-6.1315587 4.89767656 -6.1315587 4.89767656 -9 7 C-9.33 7.99 -9.66 8.98 -10 10 C-9.01 10 -8.02 10 -7 10 C-6.67 11.32 -6.34 12.64 -6 14 C-9.62528568 14.20140476 -11.86501708 13.85776765 -15 12 C-13.68 11.67 -12.36 11.34 -11 11 C-11 10.34 -11 9.68 -11 9 C-11.99 8.67 -12.98 8.34 -14 8 C-14.33 7.01 -14.66 6.02 -15 5 C-14.01 4.67 -13.02 4.34 -12 4 C-12 3.34 -12 2.68 -12 2 C-7.86180432 -1.38579646 -5.08886459 -1.09759825 0 0 Z " fill="#CF9E8B" transform="translate(32,16)"/>
<path d="M0 0 C7.87006961 3.11832947 7.87006961 3.11832947 10 6 C10 6.66 10 7.32 10 8 C9.67 8.33 9.34 8.66 9 9 C9.66 9.33 10.32 9.66 11 10 C10.34515625 10.37769531 9.6903125 10.75539063 9.015625 11.14453125 C6.73096572 12.85596306 6.73096572 12.85596306 6.609375 15.69921875 C6.65578125 16.68535156 6.7021875 17.67148437 6.75 18.6875 C6.78609375 19.68136719 6.8221875 20.67523438 6.859375 21.69921875 C6.90578125 22.45847656 6.9521875 23.21773437 7 24 C6.67 24 6.34 24 6 24 C5.855625 22.88625 5.71125 21.7725 5.5625 20.625 C5.21627965 17.17857953 5.21627965 17.17857953 4 15 C4.28241883 12.6599583 4.61250787 10.32495277 5 8 C4.34 8 3.68 8 3 8 C3.33 9.65 3.66 11.3 4 13 C1.9375 11.375 1.9375 11.375 0 9 C0.3125 5.9375 0.3125 5.9375 1 3 C0.67 2.01 0.34 1.02 0 0 Z " fill="#7F5957" transform="translate(11,19)"/>
<path d="M0 0 C0.66 0 1.32 0 2 0 C1.96744792 2.01822917 1.93489583 4.03645833 1.90234375 6.0546875 C1.87350758 8.08185404 1.87350758 8.08185404 3 10 C2.00246808 13.52972833 0.73815004 16.77200707 -1 20 C-2.32 19.34 -3.64 18.68 -5 18 C-4.34 17.21625 -3.68 16.4325 -3 15.625 C-0.79798559 13.28487188 -0.79798559 13.28487188 -1 11 C-1.99 10.34 -2.98 9.68 -4 9 C-4.1875 5.375 -4.1875 5.375 -4 2 C-2.02 2.495 -2.02 2.495 0 3 C0 2.01 0 1.02 0 0 Z " fill="#ECAEAA" transform="translate(14,27)"/>
<path d="M0 0 C1.98 0.66 3.96 1.32 6 2 C5.814375 2.61875 5.62875 3.2375 5.4375 3.875 C4.76313824 6.04160178 4.76313824 6.04160178 6 8 C4.22932584 8.16834933 2.45845388 8.33461909 0.6875 8.5 C-0.29863281 8.5928125 -1.28476562 8.685625 -2.30078125 8.78125 C-5 9 -5 9 -8 9 C-8 7.68 -8 6.36 -8 5 C-6.20963542 3.99088542 -4.41927083 2.98177083 -2.62890625 1.97265625 C-1.02121854 1.1027487 -1.02121854 1.1027487 0 0 Z " fill="#744844" transform="translate(19,5)"/>
<path d="M0 0 C0.33 0 0.66 0 1 0 C1.07476562 0.60328125 1.14953125 1.2065625 1.2265625 1.828125 C1.9055851 6.5883991 1.9055851 6.5883991 4.46875 10.48828125 C6.28018236 11.70687494 6.28018236 11.70687494 9 13 C8.67 13.99 8.34 14.98 8 16 C6.35 16.33 4.7 16.66 3 17 C-1.91917325 11.36094774 -1.91917325 11.36094774 -2.14453125 7.56640625 C-1.47167266 1.47167266 -1.47167266 1.47167266 0 0 Z " fill="#C78990" transform="translate(4,27)"/>
<path d="M0 0 C0.66666667 1.66666667 1.33333333 3.33333333 2 5 C2.99 5.33 3.98 5.66 5 6 C2.84615385 14 2.84615385 14 1 17 C0.34 17.33 -0.32 17.66 -1 18 C-1.042721 16.33388095 -1.04063832 14.66617115 -1 13 C-0.67 12.67 -0.34 12.34 0 12 C-0.25159066 9.88465561 -0.25159066 9.88465561 -0.8125 7.5 C-0.98394531 6.6853125 -1.15539062 5.870625 -1.33203125 5.03125 C-1.55246094 4.3609375 -1.77289062 3.690625 -2 3 C-2.66 2.67 -3.32 2.34 -4 2 C-4.33 2.66 -4.66 3.32 -5 4 C-5.66 3.01 -6.32 2.02 -7 1 C-3.375 -1.125 -3.375 -1.125 0 0 Z " fill="#6B423F" transform="translate(33,10)"/>
<path d="M0 0 C0.33 0 0.66 0 1 0 C1.75515079 14.93520454 1.75515079 14.93520454 -3 22 C-3.99 22.66 -4.98 23.32 -6 24 C-7 21 -7 21 -6.22265625 19.1328125 C-5.64837891 18.13894531 -5.64837891 18.13894531 -5.0625 17.125 C-3.26984766 13.77139868 -2.90470605 11.81175814 -3 8 C-2.14178859 5.26091807 -1.08321757 2.66290985 0 0 Z " fill="#BA7C85" transform="translate(49,18)"/>
<path d="M0 0 C3.875 1.75 3.875 1.75 5 4 C3.35 4 1.7 4 0 4 C0.99 4.33 1.98 4.66 3 5 C3 5.99 3 6.98 3 8 C2.01 8.495 2.01 8.495 1 9 C0.67 9.99 0.34 10.98 0 12 C-1.98 12 -3.96 12 -6 12 C-6 11.67 -6 11.34 -6 11 C-4.35 11 -2.7 11 -1 11 C-1.33 9.68 -1.66 8.36 -2 7 C-2.99 7 -3.98 7 -5 7 C-4.60196439 4.11424181 -4.20990931 3.17810487 -1.9375 1.25 C-1.298125 0.8375 -0.65875 0.425 0 0 Z " fill="#885950" transform="translate(27,19)"/>
<path d="M0 0 C0.99 0.33 1.98 0.66 3 1 C3 2.32 3 3.64 3 5 C4.98 5.66 6.96 6.32 9 7 C5.98112756 10.48331435 3.43090471 11.79157144 -1 13 C-1 11 -1 11 1 9 C0.67 9 0.34 9 0 9 C0 6.03 0 3.06 0 0 Z " fill="#94BBC3" transform="translate(32,37)"/>
<path d="M0 0 C1.32 0.33 2.64 0.66 4 1 C3.34 3.31 2.68 5.62 2 8 C1.01 7.67 0.02 7.34 -1 7 C-1.66 8.32 -2.32 9.64 -3 11 C-4.98 11 -6.96 11 -9 11 C-9 10.34 -9 9.68 -9 9 C-8.236875 8.938125 -7.47375 8.87625 -6.6875 8.8125 C-3.76948191 8.23064738 -3.76948191 8.23064738 -2.1875 5.4375 C-1.795625 4.633125 -1.40375 3.82875 -1 3 C-1.66 2.67 -2.32 2.34 -3 2 C-2.01 2 -1.02 2 0 2 C0 1.34 0 0.68 0 0 Z " fill="#8A554C" transform="translate(28,35)"/>
<path d="M0 0 C1.10844919 3.32534757 0.84454356 5.62182575 0 9 C0.99 9 1.98 9 3 9 C3.33 10.32 3.66 11.64 4 13 C0.37471432 13.20140476 -1.86501708 12.85776765 -5 11 C-3.68 10.67 -2.36 10.34 -1 10 C-1 9.34 -1 8.68 -1 8 C-1.99 7.67 -2.98 7.34 -4 7 C-4.33 6.01 -4.66 5.02 -5 4 C-4.01 3.67 -3.02 3.34 -2 3 C-2 2.34 -2 1.68 -2 1 C-1.34 0.67 -0.68 0.34 0 0 Z " fill="#C18E7E" transform="translate(22,17)"/>
<path d="M0 0 C0.66 0 1.32 0 2 0 C2.66 2.31 3.32 4.62 4 7 C3.01 7 2.02 7 1 7 C0.67 7.99 0.34 8.98 0 10 C-0.66 10 -1.32 10 -2 10 C-2 11.32 -2 12.64 -2 14 C-2.66 14 -3.32 14 -4 14 C-4.38338879 8.76035318 -3.26296201 5.61644249 -1 1 C-0.67 0.67 -0.34 0.34 0 0 Z " fill="#CF9296" transform="translate(9,10)"/>
<path d="M0 0 C0.33 0 0.66 0 1 0 C1 1.65 1 3.3 1 5 C1.66 5.33 2.32 5.66 3 6 C2.67 8.31 2.34 10.62 2 13 C1.34 13 0.68 13 0 13 C0 14.65 0 16.3 0 18 C-2 16 -2 16 -2.265625 13.57421875 C-2.26046875 12.62160156 -2.2553125 11.66898438 -2.25 10.6875 C-2.25515625 9.74261719 -2.2603125 8.79773437 -2.265625 7.82421875 C-1.98814045 4.87390511 -1.23053508 2.68080856 0 0 Z " fill="#E5A9A7" transform="translate(10,16)"/>
<path d="M0 0 C0.33 1.98 0.66 3.96 1 6 C-0.65 7.32 -2.3 8.64 -4 10 C-4.99 9.34 -5.98 8.68 -7 8 C-4.18918919 0 -4.18918919 0 0 0 Z " fill="#F7BFB8" transform="translate(39,29)"/>
<path d="M0 0 C2.69082872 0.17635452 5.32851446 0.61835921 8 1 C7.01 2.485 7.01 2.485 6 4 C6.99 4.99 7.98 5.98 9 7 C6.39855749 7.96349722 5.05329335 8.0123938 2.3125 7.375 C0 6 0 6 -0.875 3.4375 C-0.91625 2.633125 -0.9575 1.82875 -1 1 C-0.67 0.67 -0.34 0.34 0 0 Z " fill="#A46E61" transform="translate(18,30)"/>
<path d="M0 0 C3.23165844 0.71730736 6.18707922 1.81315074 9.25 3.0625 C10.14203125 3.42472656 11.0340625 3.78695313 11.953125 4.16015625 C12.96632813 4.57587891 12.96632813 4.57587891 14 5 C12.66796875 6.51953125 12.66796875 6.51953125 11 8 C8.3125 7.6875 8.3125 7.6875 6 7 C6 6.01 6 5.02 6 4 C3.64632287 3.3121764 3.64632287 3.3121764 1 3 C0.01 3.66 -0.98 4.32 -2 5 C-2 4.01 -2 3.02 -2 2 C-1.34 2 -0.68 2 0 2 C0 1.34 0 0.68 0 0 Z " fill="#9D685F" transform="translate(18,3)"/>
<path d="M0 0 C1.32 0 2.64 0 4 0 C3.6130131 2.24452405 3.08035336 3.87054181 1.875 5.8125 C-1.11632977 7.70700885 -3.67099403 6.69092577 -7 6 C-7 5.34 -7 4.68 -7 4 C-6.030625 3.71125 -5.06125 3.4225 -4.0625 3.125 C-0.89335797 2.35785318 -0.89335797 2.35785318 0 0 Z " fill="#A1756A" transform="translate(27,42)"/>
<path d="M0 0 C1.98 0.66 3.96 1.32 6 2 C5.814375 2.61875 5.62875 3.2375 5.4375 3.875 C4.76313824 6.04160178 4.76313824 6.04160178 6 8 C2.9168649 6.80100302 -0.06279492 5.52299523 -3 4 C-2.01 2.68 -1.02 1.36 0 0 Z " fill="#6C3D38" transform="translate(19,5)"/>
<path d="M0 0 C0.33 0 0.66 0 1 0 C1.66 2.64 2.32 5.28 3 8 C2.34 8 1.68 8 1 8 C1 8.99 1 9.98 1 11 C1.99 11.33 2.98 11.66 4 12 C3.01 12.495 3.01 12.495 2 13 C-0.625 12.0625 -0.625 12.0625 -3 11 C-2.32829194 7.1936543 -1.27253436 3.64793184 0 0 Z " fill="#617A8B" transform="translate(16,37)"/>
<path d="M0 0 C1.65 0 3.3 0 5 0 C5 1.32 5 2.64 5 4 C4.01 4.33 3.02 4.66 2 5 C0.79117904 7.00016466 0.79117904 7.00016466 0 9 C0 8.34 0 7.68 0 7 C-0.99 6.67 -1.98 6.34 -3 6 C-3 5.34 -3 4.68 -3 4 C-2.34 4 -1.68 4 -1 4 C-0.67 2.68 -0.34 1.36 0 0 Z " fill="#4B2928" transform="translate(14,13)"/>
<path d="M0 0 C2.375 -0.125 2.375 -0.125 5 0 C7 2 7 2 7.125 4.625 C7.08375 5.40875 7.0425 6.1925 7 7 C5.02 7.99 5.02 7.99 3 9 C3.33 8.01 3.66 7.02 4 6 C2.68 5.67 1.36 5.34 0 5 C0.99 4.67 1.98 4.34 3 4 C3 3.01 3 2.02 3 1 C2.01 1.33 1.02 1.66 0 2 C0 1.34 0 0.68 0 0 Z " fill="#CB917E" transform="translate(27,23)"/>
<path d="M0 0 C2.86724686 0.57344937 3.8614515 0.8614515 6 3 C7.32 3 8.64 3 10 3 C9.67 3.99 9.34 4.98 9 6 C5.7 6 2.4 6 -1 6 C-0.01 4.68 0.98 3.36 2 2 C1.34 1.34 0.68 0.68 0 0 Z " fill="#4C2421" transform="translate(22,10)"/>
<path d="M0 0 C2.31 0 4.62 0 7 0 C7.66 1.98 8.32 3.96 9 6 C6.03 5.505 6.03 5.505 3 5 C3.33 4.34 3.66 3.68 4 3 C2.68 2.67 1.36 2.34 0 2 C0 1.34 0 0.68 0 0 Z " fill="#E9BBA6" transform="translate(25,17)"/>
<path d="M0 0 C0.33 0 0.66 0 1 0 C1.36629408 4.27343092 0.40814077 6.48812804 -2 10 C-3.32 9.34 -4.64 8.68 -6 8 C-5.38125 7.236875 -4.7625 6.47375 -4.125 5.6875 C-1.94402948 3.00374191 -1.94402948 3.00374191 0 0 Z " fill="#94B9CE" transform="translate(15,37)"/>
<path d="M0 0 C0.33 1.98 0.66 3.96 1 6 C0.01 6 -0.98 6 -2 6 C-2 5.01 -2 4.02 -2 3 C-2.66 2.67 -3.32 2.34 -4 2 C-4.33 2.66 -4.66 3.32 -5 4 C-5.66 3.01 -6.32 2.02 -7 1 C-3.375 -1.125 -3.375 -1.125 0 0 Z " fill="#723D37" transform="translate(33,10)"/>
<path d="M0 0 C0.99 0.33 1.98 0.66 3 1 C3 2.32 3 3.64 3 5 C3.66 5.33 4.32 5.66 5 6 C4.01 6 3.02 6 2 6 C1.67 6.99 1.34 7.98 1 9 C0.67 9 0.34 9 0 9 C0 6.03 0 3.06 0 0 Z " fill="#C0B7C0" transform="translate(32,37)"/>
<path d="M0 0 C0.93423645 3.01031744 1.04449911 3.86650268 0 7 C-1.32 7 -2.64 7 -4 7 C-4.33 6.01 -4.66 5.02 -5 4 C-4.01 3.67 -3.02 3.34 -2 3 C-2 2.34 -2 1.68 -2 1 C-1.34 0.67 -0.68 0.34 0 0 Z " fill="#A8786A" transform="translate(22,17)"/>
<path d="M0 0 C2 3 2 3 1.875 5 C0.76097537 7.54634201 -0.69550623 8.51322983 -3 10 C-2.39009109 6.44219804 -1.4216319 3.3171411 0 0 Z " fill="#ECACA9" transform="translate(38,29)"/>
<path d="M0 0 C0.66 0 1.32 0 2 0 C1.96744792 2.01822917 1.93489583 4.03645833 1.90234375 6.0546875 C1.87350758 8.08185404 1.87350758 8.08185404 3 10 C1.0625 9.6875 1.0625 9.6875 -1 9 C-1.33 8.01 -1.66 7.02 -2 6 C-1.01 5.67 -0.02 5.34 1 5 C0.67 3.35 0.34 1.7 0 0 Z " fill="#D2A9A9" transform="translate(14,27)"/>
<path d="M0 0 C0.66 0.99 1.32 1.98 2 3 C1.34 4.32 0.68 5.64 0 7 C-2 5.625 -2 5.625 -4 4 C-4 3.34 -4 2.68 -4 2 C-2.68 1.34 -1.36 0.68 0 0 Z " fill="#D6A28E" transform="translate(27,30)"/>
<path d="M0 0 C1.32 0.33 2.64 0.66 4 1 C3.67 2.98 3.34 4.96 3 7 C2.34 6.01 1.68 5.02 1 4 C0.01 4.495 0.01 4.495 -1 5 C-1 4.34 -1 3.68 -1 3 C-1.66 2.67 -2.32 2.34 -3 2 C-2.01 2 -1.02 2 0 2 C0 1.34 0 0.68 0 0 Z " fill="#76453E" transform="translate(28,35)"/>
<path d="M0 0 C0.99 0.33 1.98 0.66 3 1 C2.34 2.32 1.68 3.64 1 5 C0.34 4.67 -0.32 4.34 -1 4 C-1.33 4.99 -1.66 5.98 -2 7 C-2.33 5.35 -2.66 3.7 -3 2 C-2.01 1.34 -1.02 0.68 0 0 Z " fill="#854D44" transform="translate(35,15)"/>
<path d="M0 0 C1.65 0 3.3 0 5 0 C4.34 1.32 3.68 2.64 3 4 C1.02 4 -0.96 4 -3 4 C-2.01 3.67 -1.02 3.34 0 3 C0 2.01 0 1.02 0 0 Z " fill="#683F3D" transform="translate(21,40)"/>
<path d="M0 0 C-0.66 1.32 -1.32 2.64 -2 4 C-4.31 3.67 -6.62 3.34 -9 3 C-9 2.67 -9 2.34 -9 2 C-2.25 0 -2.25 0 0 0 Z " fill="#B18E82" transform="translate(29,45)"/>
<path d="M0 0 C0.99 0 1.98 0 3 0 C2.125 4.75 2.125 4.75 1 7 C0.34 7 -0.32 7 -1 7 C-0.67 4.69 -0.34 2.38 0 0 Z " fill="#F1B3AD" transform="translate(37,18)"/>
<path d="M0 0 C2.64 0.66 5.28 1.32 8 2 C8 2.66 8 3.32 8 4 C6.02 4 4.04 4 2 4 C2 3.34 2 2.68 2 2 C1.34 2 0.68 2 0 2 C0 1.34 0 0.68 0 0 Z " fill="#5A302D" transform="translate(19,36)"/>
<path d="M0 0 C2.69082872 0.17635452 5.32851446 0.61835921 8 1 C5.08235 2.9451 3.37462715 3.45276317 0 4 C-0.33 3.01 -0.66 2.02 -1 1 C-0.67 0.67 -0.34 0.34 0 0 Z " fill="#B7806F" transform="translate(18,30)"/>
</svg>
