<?xml version="1.0" encoding="UTF-8"?>
<svg version="1.1" xmlns="http://www.w3.org/2000/svg" width="321" height="161">
<path d="M0 0 C105.93 0 211.86 0 321 0 C321 53.13 321 106.26 321 161 C215.07 161 109.14 161 0 161 C0 107.87 0 54.74 0 0 Z " fill="#C4C4C4" transform="translate(0,0)"/>
<path d="M0 0 C2.375 1.5 2.375 1.5 4 3 C3.38461538 9.52307692 3.38461538 9.52307692 1.4375 11.9375 C0.963125 12.288125 0.48875 12.63875 0 13 C4.10223585 14.01540112 4.10223585 14.01540112 8 13 C10.3400417 13.28241883 12.67504723 13.61250787 15 14 C15 13.01 15 12.02 15 11 C12.36 11 9.72 11 7 11 C6.97311849 9.35425434 6.95365877 7.70838587 6.9375 6.0625 C6.92589844 5.14597656 6.91429688 4.22945313 6.90234375 3.28515625 C7 1 7 1 8 0 C9.85287502 -0.07226502 11.70833878 -0.0838122 13.5625 -0.0625 C14.57441406 -0.05347656 15.58632813 -0.04445313 16.62890625 -0.03515625 C17.80259766 -0.01775391 17.80259766 -0.01775391 19 0 C19 1.65 19 3.3 19 5 C16.69 5 14.38 5 12 5 C12 5.66 12 6.32 12 7 C13.423125 7.185625 13.423125 7.185625 14.875 7.375 C18 8 18 8 20 10 C20.375 12.4375 20.375 12.4375 20 15 C17.75960059 17.21960607 16.40148465 17.95026012 13.25097656 18.34057617 C12.22456055 18.32486572 11.19814453 18.30915527 10.140625 18.29296875 C9.02558594 18.28330078 7.91054688 18.27363281 6.76171875 18.26367188 C5.02341797 18.2259668 5.02341797 18.2259668 3.25 18.1875 C1.48849609 18.16719727 1.48849609 18.16719727 -0.30859375 18.14648438 C-3.20619298 18.1111478 -6.10286427 18.06180979 -9 18 C-9 14 -9 14 -7.46875 12.40234375 C-6.8190625 11.91894531 -6.169375 11.43554688 -5.5 10.9375 C-3.54453471 9.53655185 -3.54453471 9.53655185 -2 8 C-2 7.01 -2 6.02 -2 5 C-2.763125 5.226875 -3.52625 5.45375 -4.3125 5.6875 C-5.199375 5.790625 -6.08625 5.89375 -7 6 C-8.8125 4.5625 -8.8125 4.5625 -10 3 C-6.69720869 -0.04873044 -4.451096 -0.556387 0 0 Z " fill="#263132" transform="translate(48,118)"/>
<path d="M0 0 C0.66 0 1.32 0 2 0 C3.66666667 0 5.33333333 0 7 0 C7.13548815 2.73083902 7.23429855 5.45491807 7.3125 8.1875 C7.35439453 8.95642578 7.39628906 9.72535156 7.43945312 10.51757812 C7.53054758 14.76257993 7.37341271 16.49448682 4.76953125 20.01953125 C1.93130807 22.04912103 0.79136629 22.64088108 -2.625 22.5 C-3.38039063 22.4896875 -4.13578125 22.479375 -4.9140625 22.46875 C-7.43023084 21.90331891 -8.3703437 20.95143557 -10 19 C-8.9375 17.4375 -8.9375 17.4375 -7 16 C-3.3125 16.3125 -3.3125 16.3125 0 17 C0.66 16.01 1.32 15.02 2 14 C1.01 14.495 1.01 14.495 0 15 C-4.03191305 15.53758841 -5.5619036 15.3075996 -8.9375 12.9375 C-11 10 -11 10 -11.0625 6.375 C-10 3 -10 3 -8.3125 1.0625 C-5.39076342 -0.27991951 -3.18307905 -0.20759211 0 0 Z " fill="#FBFBFB" transform="translate(73,63)"/>
<path d="M0 0 C1.65 0 3.3 0 5 0 C5 6.93 5 13.86 5 21 C-7.50308476 21.37137876 -7.50308476 21.37137876 -9.85546875 19.61328125 C-12.19237559 16.31927946 -12.47387885 14.02797025 -12 10 C-9.9375 7.0625 -9.9375 7.0625 -7 5 C-3.1875 5.1875 -3.1875 5.1875 0 6 C0 4.02 0 2.04 0 0 Z " fill="#FDFDFD" transform="translate(35,58)"/>
<path d="M0 0 C4.78392275 0.83928469 6.33163907 2.00013164 9.5625 5.625 C10.25 8.625 10.25 8.625 9.5625 11.625 C7.57431405 14.48301731 6.08645669 16.24401083 2.625 17.109375 C-1.37736585 17.38226358 -3.0949165 16.86766331 -6.4375 14.5 C-8.4375 11.625 -8.4375 11.625 -9.0625 8.625 C-7.95356915 3.30213192 -5.29633206 0.96296947 0 0 Z " fill="#FBFBFB" transform="translate(51.4375,62.375)"/>
<path d="M0 0 C1.98 0 3.96 0 6 0 C6 2.31 6 4.62 6 7 C7.0725 6.773125 8.145 6.54625 9.25 6.3125 C13 6 13 6 15.21875 7.0625 C17.80779934 9.87865894 17.39856598 11.93620902 17.25 15.6875 C17.21390625 16.86699219 17.1778125 18.04648437 17.140625 19.26171875 C17.07101563 20.61716797 17.07101563 20.61716797 17 22 C15.35 22 13.7 22 12 22 C11.67 18.7 11.34 15.4 11 12 C9.68 12 8.36 12 7 12 C6.67 15.3 6.34 18.6 6 22 C4.02 22 2.04 22 0 22 C0 14.74 0 7.48 0 0 Z " fill="#FBFBFB" transform="translate(116,22)"/>
<path d="M0 0 C4.04893238 1.39872209 5.3669173 2.46045115 7.4375 6.1875 C8.11204401 10.81294464 7.20611776 13.46051456 4.4375 17.1875 C1.30889505 18.75180248 -1.11852925 18.54377284 -4.5625 18.1875 C-7.72031603 15.51550182 -8.45790324 13.82670242 -9.125 9.75 C-8.23405668 4.10735896 -6.22596896 0.32768258 0 0 Z " fill="#192526" transform="translate(77.5625,117.8125)"/>
<path d="M0 0 C2.9375 1.5 2.9375 1.5 5 4 C5.9352036 8.00332769 5.61385602 10.97690664 3.5 14.5 C0.01201311 16.59279213 -3.09384536 16.75029109 -7 16 C-10 14.4375 -10 14.4375 -12 12 C-12.625 8.5625 -12.625 8.5625 -12 5 C-8.57935012 0.12816532 -5.85570965 -0.94109619 0 0 Z " fill="#FCFCFC" transform="translate(148,28)"/>
<path d="M0 0 C2.5 1.5 2.5 1.5 4 3 C3.34 4.32 2.68 5.64 2 7 C-0.01822917 6.67447917 -2.03645833 6.34895833 -4.0546875 6.0234375 C-4.69664063 6.01570313 -5.33859375 6.00796875 -6 6 C-8.31563087 7.88500271 -8.31563087 7.88500271 -8.25 11 C-8.31563087 14.11499729 -8.31563087 14.11499729 -6 16 C-3.77871445 16.02308597 -3.77871445 16.02308597 -1.375 15.625 C-0.55773438 15.51414062 0.25953125 15.40328125 1.1015625 15.2890625 C1.72804688 15.19367187 2.35453125 15.09828125 3 15 C3.99 16.485 3.99 16.485 5 18 C1.14545903 21.34713027 -1.61359763 21.56169652 -6.5859375 21.4296875 C-10.25566441 20.77649986 -11.84144922 18.92448816 -14 16 C-15.55024464 12.89951072 -15.28992015 10.42105782 -15 7 C-11.12628765 0.98906705 -7.09744547 -0.98535963 0 0 Z " fill="#FBFBFB" transform="translate(38,23)"/>
<path d="M0 0 C12.27305737 -0.49092229 12.27305737 -0.49092229 15.40625 1.625 C17.46652317 4.69521101 17.40930381 6.58601245 17.25 10.25 C17.21390625 11.32765625 17.1778125 12.4053125 17.140625 13.515625 C17.07101563 14.74539062 17.07101563 14.74539062 17 16 C15.02 16 13.04 16 11 16 C11 12.37 11 8.74 11 5 C9.68 5.33 8.36 5.66 7 6 C6.67 9.3 6.34 12.6 6 16 C4.02 16 2.04 16 0 16 C0 10.72 0 5.44 0 0 Z " fill="#FAFAFA" transform="translate(156,28)"/>
<path d="M0 0 C3.43065596 4.43967242 2.50789871 9.33836485 2.125 14.75 C0.02146505 14.8310206 -2.08295952 14.88919907 -4.1875 14.9375 C-5.35925781 14.97230469 -6.53101563 15.00710937 -7.73828125 15.04296875 C-10.875 14.75 -10.875 14.75 -12.8046875 13.40234375 C-13.875 11.75 -13.875 11.75 -13.6875 9.125 C-12.875 6.75 -12.875 6.75 -10.875 5.75 C-8.5420134 5.70977609 -6.20793334 5.70679753 -3.875 5.75 C-4.205 5.09 -4.535 4.43 -4.875 3.75 C-7.185 3.75 -9.495 3.75 -11.875 3.75 C-12.205 2.43 -12.535 1.11 -12.875 -0.25 C-8.26198897 -1.66938801 -4.48499522 -1.94999792 0 0 Z " fill="#F8F8F8" transform="translate(57.875,29.25)"/>
<path d="M0 0 C0.77988281 -0.03738281 1.55976562 -0.07476563 2.36328125 -0.11328125 C5.63907981 0.48682302 6.74428241 1.63782182 8.6875 4.3125 C9.078125 7.328125 9.078125 7.328125 8.9375 10.5625 C8.90140625 11.64015625 8.8653125 12.7178125 8.828125 13.828125 C8.75851563 15.05789062 8.75851563 15.05789062 8.6875 16.3125 C6.56277424 16.36636629 4.43766348 16.40523071 2.3125 16.4375 C1.12914063 16.46070312 -0.05421875 16.48390625 -1.2734375 16.5078125 C-4.3125 16.3125 -4.3125 16.3125 -6.3125 14.3125 C-6.5625 11.8125 -6.5625 11.8125 -6.3125 9.3125 C-4.3125 7.3125 -4.3125 7.3125 -2.3671875 7.1171875 C-0.34895833 7.18229167 1.66927083 7.24739583 3.6875 7.3125 C3.3575 6.6525 3.0275 5.9925 2.6875 5.3125 C0.3775 5.3125 -1.9325 5.3125 -4.3125 5.3125 C-4.875 3.375 -4.875 3.375 -5.3125 1.3125 C-3.74308802 -0.25691198 -2.17115006 0.0675153 0 0 Z " fill="#F9F9F9" transform="translate(86.3125,27.6875)"/>
<path d="M0 0 C0.99 0 1.98 0 3 0 C3 0.66 3 1.32 3 2 C4.65 2.33 6.3 2.66 8 3 C7.67 4.32 7.34 5.64 7 7 C4.36 6.67 1.72 6.34 -1 6 C-1 6.99 -1 7.98 -1 9 C0.093125 9.103125 1.18625 9.20625 2.3125 9.3125 C6 10 6 10 8 11.25 C9 13 9 13 9 15.5625 C8 18 8 18 5.4375 19.3125 C4.2309375 19.6528125 4.2309375 19.6528125 3 20 C3 20.99 3 21.98 3 23 C2.01 23 1.02 23 0 23 C0 22.01 0 21.02 0 20 C-1.98 19.67 -3.96 19.34 -6 19 C-5.67 17.68 -5.34 16.36 -5 15 C-2.03 15.33 0.94 15.66 4 16 C4 15.34 4 14.68 4 14 C1.98177083 13.54427083 -0.03645833 13.08854167 -2.0546875 12.6328125 C-4 12 -4 12 -6 10 C-6.4375 7.5625 -6.4375 7.5625 -6 5 C-3.5625 3.3125 -3.5625 3.3125 -1 2 C-0.67 1.34 -0.34 0.68 0 0 Z " fill="#1A2526" transform="translate(29,116)"/>
<path d="M0 0 C2.4375 1.375 2.4375 1.375 4 3 C4 3.66 4 4.32 4 5 C0.30458414 5.95024979 -2.30458414 5.95024979 -6 5 C-5.67 6.98 -5.34 8.96 -5 11 C-3.329375 10.7215625 -3.329375 10.7215625 -1.625 10.4375 C2 10 2 10 4 11 C3.625 12.9375 3.625 12.9375 3 15 C-0.22700757 16.61350378 -3.51099662 16.58705984 -7 16 C-10.44150865 13.56226471 -11.762119 12.14182881 -12.625 8 C-11.17223512 1.02672858 -6.69048354 -0.97316124 0 0 Z " fill="#FBFBFB" transform="translate(110,28)"/>
<path d="M0 0 C1.98 0 3.96 0 6 0 C6.99 2.31 7.98 4.62 9 7 C11.22189824 4.77810176 11.92598892 2.91517292 13 0 C14.65 0 16.3 0 18 0 C17.3739007 3.62615842 16.38690533 6.84392368 15 10.25 C14.649375 11.12140625 14.29875 11.9928125 13.9375 12.890625 C13 15 13 15 12 16 C10.00041636 16.04080783 7.99954746 16.04254356 6 16 C4.9955866 13.7101766 3.99632388 11.4183401 3 9.125 C2.71382812 8.47402344 2.42765625 7.82304688 2.1328125 7.15234375 C0 2.2265625 0 2.2265625 0 0 Z " fill="#FBFBFB" transform="translate(61,28)"/>
<path d="M0 0 C2.375 1.5 2.375 1.5 4 3 C3.38909774 9.47556391 3.38909774 9.47556391 1.5625 11.9375 C0 13 0 13 -2 13 C-2 13.66 -2 14.32 -2 15 C-0.02 15 1.96 15 4 15 C4 15.99 4 16.98 4 18 C-0.29 18 -4.58 18 -9 18 C-9 14 -9 14 -7.46875 12.40234375 C-6.8190625 11.91894531 -6.169375 11.43554688 -5.5 10.9375 C-3.54453471 9.53655185 -3.54453471 9.53655185 -2 8 C-2 7.01 -2 6.02 -2 5 C-2.763125 5.226875 -3.52625 5.45375 -4.3125 5.6875 C-5.199375 5.790625 -6.08625 5.89375 -7 6 C-8.8125 4.5625 -8.8125 4.5625 -10 3 C-6.69720869 -0.04873044 -4.451096 -0.556387 0 0 Z " fill="#182324" transform="translate(48,118)"/>
<path d="M0 0 C0.9075 0.350625 1.815 0.70125 2.75 1.0625 C5.87758436 1.96468779 7.05208081 2.13381507 10 1 C10.67578125 2.796875 10.67578125 2.796875 11 5 C9.85546875 6.703125 9.85546875 6.703125 8.1875 8.25 C7.64480469 8.77078125 7.10210937 9.2915625 6.54296875 9.828125 C5 11 5 11 3 11 C2.67 12.32 2.34 13.64 2 15 C1.938125 13.906875 1.87625 12.81375 1.8125 11.6875 C1.3820636 7.91178581 1.3820636 7.91178581 -1.3125 6.125 C-3.55993531 5.18421313 -5.60969782 4.44264855 -8 4 C-8 3.01 -8 2.02 -8 1 C-5.36 1.33 -2.72 1.66 0 2 C0 1.34 0 0.68 0 0 Z " fill="#B8B8B9" transform="translate(36,121)"/>
<path d="M0 0 C0.33 0 0.66 0 1 0 C1 4.62 1 9.24 1 14 C-3.62 14 -8.24 14 -13 14 C-12.01 13.34 -11.02 12.68 -10 12 C-9.319375 11.46375 -8.63875 10.9275 -7.9375 10.375 C-6 9 -6 9 -4 9 C-2.47700477 6.06279492 -1.19899698 3.0831351 0 0 Z " fill="#000000" transform="translate(320,147)"/>
<path d="M0 0 C0.99 1.485 0.99 1.485 2 3 C2.53625 3.680625 3.0725 4.36125 3.625 5.0625 C5 7 5 7 5 9 C7.93720508 10.52299523 10.9168649 11.80100302 14 13 C14 13.33 14 13.66 14 14 C9.38 14 4.76 14 0 14 C0 9.38 0 4.76 0 0 Z " fill="#000000" transform="translate(0,147)"/>
<path d="M0 0 C4.62 0 9.24 0 14 0 C14 4.62 14 9.24 14 14 C13.34 13.01 12.68 12.02 12 11 C11.46375 10.319375 10.9275 9.63875 10.375 8.9375 C9 7 9 7 9 5 C6.06279492 3.47700477 3.0831351 2.19899698 0 1 C0 0.67 0 0.34 0 0 Z " fill="#000000" transform="translate(307,0)"/>
<path d="M0 0 C4.62 0 9.24 0 14 0 C13.01 0.66 12.02 1.32 11 2 C10.319375 2.53625 9.63875 3.0725 8.9375 3.625 C7 5 7 5 5 5 C3.47700477 7.93720508 2.19899698 10.9168649 1 14 C0.67 14 0.34 14 0 14 C0 9.38 0 4.76 0 0 Z " fill="#000000" transform="translate(0,0)"/>
<path d="M0 0 C1.134375 0.020625 2.26875 0.04125 3.4375 0.0625 C3.6328125 6.1171875 3.6328125 6.1171875 3.4375 8.0625 C1.4375 10.0625 1.4375 10.0625 -1.1875 10.1875 C-1.97125 10.14625 -2.755 10.105 -3.5625 10.0625 C-3.5625 9.4025 -3.5625 8.7425 -3.5625 8.0625 C-1.9125 8.0625 -0.2625 8.0625 1.4375 8.0625 C0.633125 7.835625 -0.17125 7.60875 -1 7.375 C-3.5625 6.0625 -3.5625 6.0625 -4.4375 3.5 C-4.47875 2.695625 -4.52 1.89125 -4.5625 1.0625 C-3.5625 0.0625 -3.5625 0.0625 0 0 Z " fill="#F7F7F7" transform="translate(37.5625,95.9375)"/>
<path d="M0 0 C3.39914975 1.13304992 4.05254451 2.12518475 6 5 C6.45375 4.175 6.9075 3.35 7.375 2.5 C7.91125 1.675 8.4475 0.85 9 0 C9.66 0 10.32 0 11 0 C11 3.3 11 6.6 11 10 C10.34 10 9.68 10 9 10 C8.67 9.01 8.34 8.02 8 7 C7.01 7.66 6.02 8.32 5 9 C4.34 8.01 3.68 7.02 3 6 C2.67 7.32 2.34 8.64 2 10 C1.34 10 0.68 10 0 10 C0 6.7 0 3.4 0 0 Z " fill="#F4F4F4" transform="translate(69,93)"/>
<path d="M0 0 C1.32 0.66 2.64 1.32 4 2 C4.125 7.75 4.125 7.75 3 10 C1.35 9.67 -0.3 9.34 -2 9 C-2.125 5.625 -2.125 5.625 -2 2 C-1.34 1.34 -0.68 0.68 0 0 Z " fill="#ADAFAF" transform="translate(76,122)"/>
<path d="M0 0 C3 1 3 1 4.6875 3.875 C6 7 6 7 6 10 C5.34 10 4.68 10 4 10 C4 9.34 4 8.68 4 8 C2.02 8 0.04 8 -2 8 C-2 8.66 -2 9.32 -2 10 C-2.66 9.67 -3.32 9.34 -4 9 C-2.68 6.03 -1.36 3.06 0 0 Z " fill="#EFEFEF" transform="translate(26,93)"/>
<path d="M0 0 C1.4540625 0.0309375 1.4540625 0.0309375 2.9375 0.0625 C3.5625 2.4375 3.5625 2.4375 3.9375 5.0625 C3.2775 5.7225 2.6175 6.3825 1.9375 7.0625 C-0.6875 6.6875 -0.6875 6.6875 -3.0625 6.0625 C-3.44468767 4.40635343 -3.77645102 2.73792976 -4.0625 1.0625 C-3.0625 0.0625 -3.0625 0.0625 0 0 Z " fill="#E7E7E7" transform="translate(86.0625,95.9375)"/>
<path d="M0 0 C2.125 0.375 2.125 0.375 4 1 C4.625 3.375 4.625 3.375 5 6 C4.34 6.66 3.68 7.32 3 8 C0.875 7.625 0.875 7.625 -1 7 C-1.625 4.625 -1.625 4.625 -2 2 C-1.34 1.34 -0.68 0.68 0 0 Z " fill="#CACACA" transform="translate(143,32)"/>
<path d="M0 0 C2.125 0.375 2.125 0.375 4 1 C4.93423645 4.01031744 5.04449911 4.86650268 4 8 C2.33388095 8.042721 0.66617115 8.04063832 -1 8 C-2 7 -2 7 -2.1875 4.5625 C-2 2 -2 2 0 0 Z " fill="#F5F5F5" transform="translate(45,95)"/>
<path d="M0 0 C1.32 0.66 2.64 1.32 4 2 C4 3.65 4 5.3 4 7 C2.34385343 7.38218767 0.67542976 7.71395102 -1 8 C-2 7 -2 7 -2.1875 4.5625 C-2 2 -2 2 0 0 Z " fill="#C8C8C8" transform="translate(51,67)"/>
<path d="M0 0 C2.0625 0.4375 2.0625 0.4375 4 1 C4.625 3.375 4.625 3.375 5 6 C4.34 6.66 3.68 7.32 3 8 C0.875 7.625 0.875 7.625 -1 7 C-1.04254356 5.00045254 -1.04080783 2.99958364 -1 1 C-0.67 0.67 -0.34 0.34 0 0 Z " fill="#C8C8C8" transform="translate(30,67)"/>
<path d="M0 0 C0.66 0 1.32 0 2 0 C2 0.99 2 1.98 2 3 C2.804375 2.979375 3.60875 2.95875 4.4375 2.9375 C7 3 7 3 8 4 C8.04080783 5.99958364 8.04254356 8.00045254 8 10 C7.34 10 6.68 10 6 10 C5.67 8.35 5.34 6.7 5 5 C4.34 5 3.68 5 3 5 C2.67 6.65 2.34 8.3 2 10 C1.34 10 0.68 10 0 10 C0 6.7 0 3.4 0 0 Z " fill="#F5F5F5" transform="translate(107,93)"/>
<path d="M0 0 C2.125 0.375 2.125 0.375 4 1 C4.625 2.875 4.625 2.875 5 5 C4.34 5.66 3.68 6.32 3 7 C0.875 6.625 0.875 6.625 -1 6 C-1.625 4.125 -1.625 4.125 -2 2 C-1.34 1.34 -0.68 0.68 0 0 Z " fill="#C9C9C9" transform="translate(70,67)"/>
<path d="M0 0 C0.66 0.33 1.32 0.66 2 1 C1.01 2.32 0.02 3.64 -1 5 C-0.34 5.33 0.32 5.66 1 6 C1.33 5.34 1.66 4.68 2 4 C2 4.66 2 5.32 2 6 C2.66 6 3.32 6 4 6 C4 6.66 4 7.32 4 8 C3.34 8 2.68 8 2 8 C1.67 8.66 1.34 9.32 1 10 C1 9.34 1 8.68 1 8 C-0.98 8 -2.96 8 -5 8 C-3.8141763 4.62496331 -2.72426311 2.35277269 0 0 Z " fill="#F3F3F3" transform="translate(60,93)"/>
<path d="M0 0 C1.65 0 3.3 0 5 0 C6.125 3.75 6.125 3.75 5 6 C3.68 5.67 2.36 5.34 1 5 C0.67 3.35 0.34 1.7 0 0 Z " fill="#DEDEDE" transform="translate(33,97)"/>
<path d="M0 0 C1.98 0 3.96 0 6 0 C5.34 0.66 4.68 1.32 4 2 C4.66 2.33 5.32 2.66 6 3 C5.67 4.32 5.34 5.64 5 7 C3.35 7 1.7 7 0 7 C0 4.66666667 0 2.33333333 0 0 Z " fill="#F3F3F3" transform="translate(116,96)"/>
<path d="M0 0 C0.66 0 1.32 0 2 0 C2 0.66 2 1.32 2 2 C2.66 2.33 3.32 2.66 4 3 C3.34 3 2.68 3 2 3 C2 4.65 2 6.3 2 8 C2.99 8.33 3.98 8.66 5 9 C3.35 8.67 1.7 8.34 0 8 C-0.38063221 5.6739143 -0.71269945 3.33944736 -1 1 C-0.67 0.67 -0.34 0.34 0 0 Z " fill="#F2F2F2" transform="translate(101,94)"/>
<path d="M0 0 C-0.66 1.32 -1.32 2.64 -2 4 C-4.31 3.67 -6.62 3.34 -9 3 C-8.67 2.34 -8.34 1.68 -8 1 C-5.30114269 0.42577504 -2.76207303 0 0 0 Z " fill="#CFCFCF" transform="translate(75,77)"/>
<path d="M0 0 C0.99 0 1.98 0 3 0 C3.33 1.32 3.66 2.64 4 4 C2.35 4 0.7 4 -1 4 C-1 1 -1 1 0 0 Z " fill="#E5E5E5" transform="translate(45,95)"/>
<path d="M0 0 C1.65 0.33 3.3 0.66 5 1 C5 1.66 5 2.32 5 3 C2.69 3 0.38 3 -2 3 C-1.34 2.01 -0.68 1.02 0 0 Z " fill="#CDCDCD" transform="translate(49,32)"/>
</svg>
