<?xml version="1.0" encoding="UTF-8"?>
<svg version="1.1" xmlns="http://www.w3.org/2000/svg" width="20" height="19">
<path d="M0 0 C2.69185152 2.16843595 3.46914023 3.45480301 4.25 6.8125 C4.16849905 10.72454555 3.47912265 12.49311691 1.1875 15.6875 C-2.11938832 18.07971708 -3.82734443 18.56834234 -7.81640625 18.296875 C-11.25163404 17.43633309 -12.73605167 15.61982192 -14.75 12.8125 C-16.04342871 9.01305316 -15.94465435 7.34523823 -14.5625 3.5625 C-10.96227777 -1.89990614 -5.95523377 -2.57157822 0 0 Z M-10.75 3.8125 C-12.14935013 6.61120027 -12.00265405 8.71748792 -11.75 11.8125 C-10.83333333 13.89583333 -10.83333333 13.89583333 -8.75 14.8125 C-3.70434998 14.62112516 -3.70434998 14.62112516 0.25 11.8125 C0.73408063 8.10121513 0.73899662 6.45325419 -1.5625 3.4375 C-5.03163427 0.86042883 -7.27934819 1.73010891 -10.75 3.8125 Z " fill="#101B1C" transform="translate(15.75,1.1875)"/>
</svg>
