<?xml version="1.0" encoding="UTF-8"?>
<svg version="1.1" xmlns="http://www.w3.org/2000/svg" width="72" height="72">
<path d="M0 0 C1.546875 0.8353125 1.546875 0.8353125 3.125 1.6875 C10.71537404 7.79280086 17.09288332 14.94933946 18.21875 24.94140625 C18.88209053 33.94625391 18.51105404 41.9681233 14 50 C13.443125 51.03125 12.88625 52.0625 12.3125 53.125 C6.20719914 60.71537404 -0.94933946 67.09288332 -10.94140625 68.21875 C-19.94625391 68.88209053 -27.9681233 68.51105404 -36 64 C-37.03125 63.443125 -38.0625 62.88625 -39.125 62.3125 C-46.71537404 56.20719914 -53.09288332 49.05066054 -54.21875 39.05859375 C-54.88209053 30.05374609 -54.51105404 22.0318767 -50 14 C-49.443125 12.96875 -48.88625 11.9375 -48.3125 10.875 C-36.36883269 -3.97388368 -17.30119401 -9.71710897 0 0 Z " fill="#C3C3C3" transform="translate(54,4)"/>
</svg>
