<?xml version="1.0" encoding="UTF-8"?>
<svg version="1.1" xmlns="http://www.w3.org/2000/svg" width="31" height="32">
<path d="M0 0 C2.74225876 2.20904178 3.48590145 3.37405655 4.25 6.8125 C4.0762677 8.1507816 3.86508731 9.48451708 3.625 10.8125 C3.03668699 14.30271653 3.11313262 14.60057631 5.1875 17.8125 C6.2084375 18.8025 6.2084375 18.8025 7.25 19.8125 C5.4375 20.5 5.4375 20.5 3.25 20.8125 C2.81042969 20.32136719 2.37085937 19.83023437 1.91796875 19.32421875 C0.33971664 17.57326735 0.33971664 17.57326735 -2.0546875 17.6953125 C-2.90289062 17.77523438 -3.75109375 17.85515625 -4.625 17.9375 C-8.55006699 18.0521005 -9.44816905 18.02193372 -12.8125 15.6875 C-14.9862509 12.46193415 -15.75 10.69914747 -15.75 6.8125 C-14.5803301 3.61129817 -13.67407353 1.5135213 -10.9375 -0.5625 C-6.89062114 -1.7187511 -3.87828936 -1.67471586 0 0 Z M-10.75 3.8125 C-12.14935013 6.61120027 -12.00265405 8.71748792 -11.75 11.8125 C-10.83333333 13.89583333 -10.83333333 13.89583333 -8.75 14.8125 C-3.70434998 14.62112516 -3.70434998 14.62112516 0.25 11.8125 C0.73408063 8.10121513 0.73899662 6.45325419 -1.5625 3.4375 C-5.03163427 0.86042883 -7.27934819 1.73010891 -10.75 3.8125 Z " fill="#101B1C" transform="translate(18.75,5.1875)"/>
</svg>
